<mxfile host="app.diagrams.net" modified="2020-11-23T19:37:35.734Z" agent="5.0 (X11)" etag="yBnxtHjQ-9QXGiZdByIy" version="13.10.1" type="github">
  <diagram id="SKtbNTC9j6CT3jW_uAWr" name="Page-1">
    <mxGraphModel dx="1673" dy="1321" grid="1" gridSize="10" guides="1" tooltips="1" connect="1" arrows="1" fold="1" page="0" pageScale="1" pageWidth="1169" pageHeight="826" background="#ffffff" math="0" shadow="0">
      <root>
        <mxCell id="0" />
        <mxCell id="1" parent="0" />
        <mxCell id="Rzevuu3Boefq3aI9rTCi-90" value="vault" style="swimlane;whiteSpace=wrap;html=1;rounded=1;shadow=0;glass=0;comic=0;startSize=23;swimlaneFillColor=#ffffff;fontColor=#ffffff;fillColor=#647687;strokeColor=#314354;" parent="1" vertex="1">
          <mxGeometry x="882" y="40" width="150" height="250" as="geometry">
            <mxRectangle x="878" y="40" width="170" height="23" as="alternateBounds" />
          </mxGeometry>
        </mxCell>
        <mxCell id="Rzevuu3Boefq3aI9rTCi-92" value="" style="rounded=0;whiteSpace=wrap;html=1;glass=0;comic=0;strokeWidth=1;fillColor=#BDBDBD;strokeColor=#666666;" parent="Rzevuu3Boefq3aI9rTCi-90" vertex="1">
          <mxGeometry x="42.5" y="40" width="65" height="20" as="geometry" />
        </mxCell>
        <mxCell id="Rzevuu3Boefq3aI9rTCi-96" value="" style="endArrow=classic;startArrow=classic;html=1;strokeColor=#666666;entryX=0.5;entryY=1;entryDx=0;entryDy=0;" parent="Rzevuu3Boefq3aI9rTCi-90" source="Rzevuu3Boefq3aI9rTCi-118" target="Rzevuu3Boefq3aI9rTCi-92" edge="1">
          <mxGeometry width="50" height="50" relative="1" as="geometry">
            <mxPoint x="75" y="100" as="sourcePoint" />
            <mxPoint x="120" y="110" as="targetPoint" />
          </mxGeometry>
        </mxCell>
        <mxCell id="Rzevuu3Boefq3aI9rTCi-98" value="socat" style="text;html=1;strokeColor=none;fillColor=none;align=center;verticalAlign=middle;whiteSpace=wrap;rounded=0;glass=0;comic=0;" parent="Rzevuu3Boefq3aI9rTCi-90" vertex="1">
          <mxGeometry x="55" y="40" width="40" height="20" as="geometry" />
        </mxCell>
        <mxCell id="Rzevuu3Boefq3aI9rTCi-118" value="KeepassXC" style="swimlane;whiteSpace=wrap;html=1;rounded=0;shadow=0;glass=0;comic=0;startSize=23;swimlaneFillColor=#ffffff;fillColor=#f5f5f5;strokeColor=#666666;dashed=1;fontColor=#333333;" parent="Rzevuu3Boefq3aI9rTCi-90" vertex="1">
          <mxGeometry x="10" y="87" width="130" height="93" as="geometry">
            <mxRectangle x="878" y="40" width="170" height="23" as="alternateBounds" />
          </mxGeometry>
        </mxCell>
        <mxCell id="Rzevuu3Boefq3aI9rTCi-130" value="" style="shape=cylinder3;whiteSpace=wrap;html=1;boundedLbl=1;backgroundOutline=1;size=3.4285714285715017;rounded=0;glass=0;comic=0;strokeColor=#314354;strokeWidth=1;fillColor=#647687;fontColor=#ffffff;" parent="Rzevuu3Boefq3aI9rTCi-118" vertex="1">
          <mxGeometry x="10" y="106" width="110" height="47" as="geometry" />
        </mxCell>
        <mxCell id="Rzevuu3Boefq3aI9rTCi-134" value="&lt;div style=&quot;font-size: 10px&quot;&gt;&lt;b&gt;&lt;font style=&quot;font-size: 10px&quot; face=&quot;Helvetica&quot;&gt;SSH keys&lt;/font&gt;&lt;/b&gt;&lt;/div&gt;&lt;div style=&quot;font-size: 10px&quot;&gt;&lt;font style=&quot;font-size: 10px&quot; face=&quot;Helvetica&quot;&gt;(and password) encrypted database&lt;br&gt;&lt;/font&gt;&lt;/div&gt;" style="text;html=1;strokeColor=none;fillColor=none;align=center;verticalAlign=middle;whiteSpace=wrap;rounded=0;glass=0;comic=0;fontColor=#FFFFFF;" parent="Rzevuu3Boefq3aI9rTCi-118" vertex="1">
          <mxGeometry x="10" y="123" width="110" height="20" as="geometry" />
        </mxCell>
        <mxCell id="Rzevuu3Boefq3aI9rTCi-131" value="" style="rounded=0;whiteSpace=wrap;html=1;glass=0;comic=0;strokeWidth=1;fillColor=#BDBDBD;strokeColor=#666666;" parent="Rzevuu3Boefq3aI9rTCi-118" vertex="1">
          <mxGeometry x="25" y="58" width="80" height="20" as="geometry" />
        </mxCell>
        <mxCell id="Rzevuu3Boefq3aI9rTCi-133" value="&lt;div&gt;ssh-agent&lt;/div&gt;" style="text;html=1;strokeColor=none;fillColor=none;align=center;verticalAlign=middle;whiteSpace=wrap;rounded=0;glass=0;comic=0;" parent="Rzevuu3Boefq3aI9rTCi-118" vertex="1">
          <mxGeometry x="32.5" y="58" width="65" height="20" as="geometry" />
        </mxCell>
        <mxCell id="Rzevuu3Boefq3aI9rTCi-132" value="" style="endArrow=classic;startArrow=classic;html=1;entryX=0.5;entryY=1;entryDx=0;entryDy=0;strokeColor=#82b366;fillColor=#d5e8d4;" parent="Rzevuu3Boefq3aI9rTCi-118" source="Rzevuu3Boefq3aI9rTCi-130" target="Rzevuu3Boefq3aI9rTCi-131" edge="1">
          <mxGeometry width="50" height="50" relative="1" as="geometry">
            <mxPoint x="257" y="-40" as="sourcePoint" />
            <mxPoint x="-576" y="-60" as="targetPoint" />
          </mxGeometry>
        </mxCell>
        <mxCell id="Rzevuu3Boefq3aI9rTCi-136" value="&lt;div&gt;master password&lt;br&gt;&lt;/div&gt;" style="text;html=1;strokeColor=#314354;fillColor=#647687;align=center;verticalAlign=middle;whiteSpace=wrap;rounded=0;glass=0;comic=0;fontColor=#ffffff;" parent="Rzevuu3Boefq3aI9rTCi-118" vertex="1">
          <mxGeometry x="10" y="30" width="110" height="20" as="geometry" />
        </mxCell>
        <mxCell id="Rzevuu3Boefq3aI9rTCi-107" style="edgeStyle=orthogonalEdgeStyle;rounded=0;orthogonalLoop=1;jettySize=auto;html=1;startArrow=oval;startFill=1;endArrow=none;endFill=0;dashed=1;exitX=1;exitY=0.5;exitDx=0;exitDy=0;" parent="Rzevuu3Boefq3aI9rTCi-90" edge="1">
          <mxGeometry relative="1" as="geometry">
            <mxPoint x="322" y="127" as="targetPoint" />
            <mxPoint x="130" y="127" as="sourcePoint" />
          </mxGeometry>
        </mxCell>
        <mxCell id="5" value="vault" style="swimlane;whiteSpace=wrap;html=1;rounded=1;shadow=0;glass=0;comic=0;startSize=23;swimlaneFillColor=#ffffff;fontColor=#ffffff;fillColor=#647687;strokeColor=#314354;" parent="1" vertex="1">
          <mxGeometry x="536" y="40" width="150" height="250" as="geometry" />
        </mxCell>
        <mxCell id="QTO3XgoEFIxhdkZU8tme-128" value="" style="shape=cylinder3;whiteSpace=wrap;html=1;boundedLbl=1;backgroundOutline=1;size=3.857142857142833;rounded=0;glass=0;comic=0;strokeColor=#314354;strokeWidth=1;fillColor=#647687;fontColor=#ffffff;" parent="5" vertex="1">
          <mxGeometry x="30" y="190" width="90" height="40" as="geometry" />
        </mxCell>
        <mxCell id="QTO3XgoEFIxhdkZU8tme-130" value="" style="rounded=0;whiteSpace=wrap;html=1;glass=0;comic=0;strokeWidth=1;fillColor=#BDBDBD;strokeColor=#666666;" parent="5" vertex="1">
          <mxGeometry x="42.5" y="40" width="65" height="20" as="geometry" />
        </mxCell>
        <mxCell id="QTO3XgoEFIxhdkZU8tme-133" value="" style="rounded=0;whiteSpace=wrap;html=1;glass=0;comic=0;strokeWidth=1;fillColor=#BDBDBD;strokeColor=#666666;" parent="5" vertex="1">
          <mxGeometry x="35" y="112" width="80" height="20" as="geometry" />
        </mxCell>
        <mxCell id="QTO3XgoEFIxhdkZU8tme-134" value="" style="endArrow=classic;startArrow=classic;html=1;entryX=0.5;entryY=1;entryDx=0;entryDy=0;strokeColor=#666666;" parent="5" source="QTO3XgoEFIxhdkZU8tme-128" target="QTO3XgoEFIxhdkZU8tme-133" edge="1">
          <mxGeometry width="50" height="50" relative="1" as="geometry">
            <mxPoint x="70" y="220" as="sourcePoint" />
            <mxPoint x="120" y="170" as="targetPoint" />
          </mxGeometry>
        </mxCell>
        <mxCell id="QTO3XgoEFIxhdkZU8tme-135" value="&lt;div&gt;ssh-agent&lt;/div&gt;" style="text;html=1;strokeColor=none;fillColor=none;align=center;verticalAlign=middle;whiteSpace=wrap;rounded=0;glass=0;comic=0;" parent="5" vertex="1">
          <mxGeometry x="42.5" y="112" width="65" height="20" as="geometry" />
        </mxCell>
        <mxCell id="QTO3XgoEFIxhdkZU8tme-136" value="" style="endArrow=classic;startArrow=classic;html=1;strokeColor=#666666;entryX=0.5;entryY=1;entryDx=0;entryDy=0;exitX=0.5;exitY=0;exitDx=0;exitDy=0;" parent="5" source="QTO3XgoEFIxhdkZU8tme-135" target="QTO3XgoEFIxhdkZU8tme-130" edge="1">
          <mxGeometry width="50" height="50" relative="1" as="geometry">
            <mxPoint x="70" y="160" as="sourcePoint" />
            <mxPoint x="120" y="110" as="targetPoint" />
          </mxGeometry>
        </mxCell>
        <mxCell id="QTO3XgoEFIxhdkZU8tme-129" value="&lt;div&gt;&lt;b&gt;SSH keys&lt;/b&gt;&lt;/div&gt;" style="text;html=1;strokeColor=none;fillColor=none;align=center;verticalAlign=middle;whiteSpace=wrap;rounded=0;glass=0;comic=0;fontColor=#FFFFFF;" parent="5" vertex="1">
          <mxGeometry x="40" y="204" width="70" height="20" as="geometry" />
        </mxCell>
        <mxCell id="QTO3XgoEFIxhdkZU8tme-137" value="socat" style="text;html=1;strokeColor=none;fillColor=none;align=center;verticalAlign=middle;whiteSpace=wrap;rounded=0;glass=0;comic=0;" parent="5" vertex="1">
          <mxGeometry x="55" y="40" width="40" height="20" as="geometry" />
        </mxCell>
        <mxCell id="Rzevuu3Boefq3aI9rTCi-102" value="" style="endArrow=classic;startArrow=none;html=1;entryX=0;entryY=0.5;entryDx=0;entryDy=0;dashed=1;startFill=0;" parent="5" edge="1" target="Rzevuu3Boefq3aI9rTCi-92">
          <mxGeometry width="50" height="50" relative="1" as="geometry">
            <mxPoint x="244" y="50" as="sourcePoint" />
            <mxPoint x="325" y="49.5" as="targetPoint" />
          </mxGeometry>
        </mxCell>
        <mxCell id="90" value="&lt;font color=&quot;#262626&quot;&gt;ssh-client&lt;/font&gt;" style="swimlane;whiteSpace=wrap;html=1;rounded=1;shadow=0;glass=0;comic=0;strokeColor=#d6b656;fillColor=#fff2cc;startSize=23;swimlaneFillColor=#ffffff;" parent="1" vertex="1">
          <mxGeometry x="273" y="40" width="150" height="130" as="geometry">
            <mxRectangle x="337" y="40" width="120" height="23" as="alternateBounds" />
          </mxGeometry>
        </mxCell>
        <mxCell id="7Ih5Z2z4oaHKUIcbK2M9-90" value="" style="rounded=0;whiteSpace=wrap;html=1;glass=0;comic=0;strokeWidth=1;fillColor=#fff2cc;strokeColor=#d6b656;" parent="90" vertex="1">
          <mxGeometry x="42.5" y="40" width="65" height="20" as="geometry" />
        </mxCell>
        <mxCell id="QTO3XgoEFIxhdkZU8tme-138" value="socat" style="text;html=1;align=center;verticalAlign=middle;whiteSpace=wrap;rounded=0;glass=0;comic=0;" parent="90" vertex="1">
          <mxGeometry x="42.5" y="40" width="60" height="20" as="geometry" />
        </mxCell>
        <mxCell id="Uwi5YcslHXohGdOQimyk-92" value="" style="rounded=0;whiteSpace=wrap;html=1;glass=0;comic=0;strokeWidth=1;fillColor=#fff2cc;strokeColor=#d6b656;" parent="90" vertex="1">
          <mxGeometry x="35" y="90" width="80" height="20" as="geometry" />
        </mxCell>
        <mxCell id="Uwi5YcslHXohGdOQimyk-94" value="" style="endArrow=classic;startArrow=classic;html=1;strokeColor=#666666;entryX=0.526;entryY=1.015;entryDx=0;entryDy=0;entryPerimeter=0;" parent="90" target="QTO3XgoEFIxhdkZU8tme-138" edge="1">
          <mxGeometry width="50" height="50" relative="1" as="geometry">
            <mxPoint x="74" y="90" as="sourcePoint" />
            <mxPoint x="74.65999999999997" y="60" as="targetPoint" />
          </mxGeometry>
        </mxCell>
        <mxCell id="Uwi5YcslHXohGdOQimyk-93" value="ssh" style="text;html=1;strokeColor=none;fillColor=none;align=center;verticalAlign=middle;whiteSpace=wrap;rounded=0;" parent="90" vertex="1">
          <mxGeometry x="52.5" y="90" width="40" height="20" as="geometry" />
        </mxCell>
        <mxCell id="QTO3XgoEFIxhdkZU8tme-132" value="&lt;div style=&quot;font-size: 10px&quot;&gt;&lt;font style=&quot;font-size: 10px&quot;&gt;qrexec protocol&lt;/font&gt;&lt;/div&gt;&lt;div style=&quot;font-size: 10px&quot;&gt;&lt;font style=&quot;font-size: 10px&quot;&gt;(qubes.SshAgent)&lt;br&gt;&lt;/font&gt;&lt;/div&gt;" style="text;html=1;strokeColor=none;fillColor=none;align=center;verticalAlign=middle;whiteSpace=wrap;rounded=0;glass=0;comic=0;" parent="1" vertex="1">
          <mxGeometry x="456" y="70" width="40" height="10" as="geometry" />
        </mxCell>
        <mxCell id="QTO3XgoEFIxhdkZU8tme-149" value="" style="whiteSpace=wrap;html=1;aspect=fixed;rounded=0;glass=0;comic=0;strokeColor=#b85450;strokeWidth=1;fillColor=#f8cecc;" parent="1" vertex="1">
          <mxGeometry x="396" y="200" width="80" height="80" as="geometry" />
        </mxCell>
        <mxCell id="QTO3XgoEFIxhdkZU8tme-131" value="" style="endArrow=classic;startArrow=classic;html=1;entryX=0;entryY=0.5;entryDx=0;entryDy=0;dashed=1;exitX=1;exitY=0.5;exitDx=0;exitDy=0;" parent="1" source="7Ih5Z2z4oaHKUIcbK2M9-90" target="QTO3XgoEFIxhdkZU8tme-130" edge="1">
          <mxGeometry width="50" height="50" relative="1" as="geometry">
            <mxPoint x="406" y="130" as="sourcePoint" />
            <mxPoint x="456" y="80" as="targetPoint" />
          </mxGeometry>
        </mxCell>
        <mxCell id="QTO3XgoEFIxhdkZU8tme-150" value="Remote server" style="text;html=1;strokeColor=none;fillColor=none;align=center;verticalAlign=middle;whiteSpace=wrap;rounded=0;glass=0;comic=0;" parent="1" vertex="1">
          <mxGeometry x="416" y="230" width="40" height="20" as="geometry" />
        </mxCell>
        <mxCell id="7Ih5Z2z4oaHKUIcbK2M9-96" style="edgeStyle=orthogonalEdgeStyle;rounded=0;orthogonalLoop=1;jettySize=auto;html=1;entryX=0.5;entryY=0;entryDx=0;entryDy=0;strokeColor=#080808;curved=1;dashed=1;exitX=0.5;exitY=1;exitDx=0;exitDy=0;" parent="1" source="Uwi5YcslHXohGdOQimyk-92" target="QTO3XgoEFIxhdkZU8tme-149" edge="1">
          <mxGeometry relative="1" as="geometry">
            <mxPoint x="476" y="120" as="sourcePoint" />
          </mxGeometry>
        </mxCell>
        <mxCell id="Rzevuu3Boefq3aI9rTCi-100" value="&lt;div&gt;default setup&lt;/div&gt;&lt;div&gt;(Qubes OS native)&lt;/div&gt;" style="text;html=1;strokeColor=none;fillColor=none;align=center;verticalAlign=middle;whiteSpace=wrap;rounded=0;" parent="1" vertex="1">
          <mxGeometry x="551" width="120" height="20" as="geometry" />
        </mxCell>
        <mxCell id="Rzevuu3Boefq3aI9rTCi-101" value="optional setup&lt;div&gt;(Qubes OS with KeePassXC)&lt;/div&gt;" style="text;html=1;strokeColor=none;fillColor=none;align=center;verticalAlign=middle;whiteSpace=wrap;rounded=0;" parent="1" vertex="1">
          <mxGeometry x="872" width="170" height="20" as="geometry" />
        </mxCell>
        <mxCell id="Rzevuu3Boefq3aI9rTCi-103" value="&lt;div style=&quot;font-size: 10px&quot;&gt;&lt;font style=&quot;font-size: 10px&quot;&gt;qrexec protocol&lt;/font&gt;&lt;/div&gt;&lt;div style=&quot;font-size: 10px&quot;&gt;&lt;font style=&quot;font-size: 10px&quot;&gt;(qubes.SshAgent)&lt;br&gt;&lt;/font&gt;&lt;/div&gt;" style="text;html=1;strokeColor=none;fillColor=none;align=center;verticalAlign=middle;whiteSpace=wrap;rounded=0;glass=0;comic=0;" parent="1" vertex="1">
          <mxGeometry x="808" y="70" width="40" height="10" as="geometry" />
        </mxCell>
        <mxCell id="Rzevuu3Boefq3aI9rTCi-110" value="&lt;div style=&quot;font-size: 10px&quot;&gt;&lt;font style=&quot;font-size: 10px&quot; face=&quot;Helvetica&quot;&gt;master password plus optionally an external key file or Yubikey.&lt;br&gt;&lt;/font&gt;&lt;/div&gt;&lt;div style=&quot;font-size: 10px&quot;&gt;&lt;font style=&quot;font-size: 10px&quot; face=&quot;Helvetica&quot;&gt;&lt;br&gt;&lt;/font&gt;&lt;/div&gt;&lt;div style=&quot;font-size: 10px&quot;&gt;&lt;font style=&quot;font-size: 10px&quot; face=&quot;Helvetica&quot;&gt;(i.e. external USB drive or as USB keyboard for Yubikey) &lt;br&gt;&lt;/font&gt;&lt;/div&gt;" style="text;html=1;strokeColor=none;fillColor=none;align=center;verticalAlign=middle;whiteSpace=wrap;rounded=0;" parent="1" vertex="1">
          <mxGeometry x="1053" y="135" width="152" height="65.5" as="geometry" />
        </mxCell>
      </root>
    </mxGraphModel>
  </diagram>
</mxfile>
